<?xml version="1.0" encoding="UTF-8" standalone="no"?>
<svg width="100px" height="84px" viewBox="0 0 100 84" version="1.1" xmlns="http://www.w3.org/2000/svg" xmlns:xlink="http://www.w3.org/1999/xlink" xmlns:sketch="http://www.bohemiancoding.com/sketch/ns">
    <!-- Generator: Sketch 3.2.2 (9983) - http://www.bohemiancoding.com/sketch -->
    <title>Shape</title>
    <desc>Created with Sketch.</desc>
    <defs></defs>
    <g id="Page-1" stroke="none" stroke-width="1" fill="none" fill-rule="evenodd" sketch:type="MSPage">
        <g id="noun_3777" sketch:type="MSLayerGroup" transform="translate(0.000000, -1.000000)" fill="#333333">
            <path d="M95.59,36.661 L85.322,36.676 L87.365,33.453 C88.666,31.401 88.058,28.685 86.007,27.387 C83.952,26.082 81.236,26.695 79.936,28.741 L74.9,36.69 L57.595,36.715 L66.241,21.53 L78.18,20.881 C80.611,20.75 82.47,18.681 82.336,16.25 C82.206,13.825 80.136,11.963 77.705,12.099 L71.417,12.436 L74.187,7.573 C75.388,5.463 74.651,2.781 72.541,1.575 C70.428,0.374 67.747,1.111 66.541,3.227 L63.756,8.118 L62.038,5.003 C60.87,2.871 58.193,2.1 56.06,3.273 C53.937,4.444 53.164,7.12 54.334,9.246 L58.648,17.086 L50,32.277 L41.35,17.087 L45.664,9.247 C46.834,7.121 46.062,4.445 43.938,3.274 C41.805,2.102 39.129,2.873 37.961,5.004 L36.243,8.119 L33.458,3.228 C32.252,1.112 29.571,0.375 27.458,1.576 C25.349,2.781 24.611,5.463 25.812,7.574 L28.582,12.437 L22.293,12.1 C19.863,11.964 17.792,13.826 17.662,16.251 C17.528,18.682 19.388,20.751 21.819,20.882 L33.758,21.531 L42.404,36.716 L25.099,36.69 L20.063,28.741 C18.763,26.695 16.047,26.082 13.992,27.387 C11.941,28.685 11.333,31.401 12.634,33.453 L14.676,36.676 L4.41,36.661 C1.98,36.661 0.008,38.627 0,41.057 C0,43.484 1.963,45.462 4.39,45.462 L14.502,45.477 L11.31,50.607 C10.03,52.666 10.661,55.376 12.722,56.669 C14.784,57.948 17.499,57.319 18.779,55.249 L24.853,45.493 L42.433,45.518 L34.031,60.217 L24.952,60.738 C22.527,60.885 20.672,62.956 20.813,65.38 C20.954,67.804 23.03,69.668 25.454,69.519 L28.824,69.327 L23.687,78.313 C22.487,80.427 23.219,83.114 25.326,84.315 C27.432,85.528 30.119,84.795 31.326,82.679 L36.661,73.347 L39.816,79.009 C41.001,81.138 43.676,81.903 45.8,80.713 C47.918,79.535 48.687,76.859 47.504,74.734 L41.762,64.422 L49.987,50.033 L50,50.056 L50.013,50.033 L58.239,64.422 L52.498,74.734 C51.315,76.859 52.084,79.535 54.202,80.713 C56.325,81.902 59,81.138 60.185,79.009 L63.34,73.347 L68.675,82.679 C69.88,84.795 72.568,85.528 74.674,84.315 C76.781,83.114 77.513,80.427 76.313,78.313 L71.176,69.327 L74.545,69.519 C76.97,69.668 79.046,67.804 79.187,65.38 C79.329,62.956 77.473,60.886 75.047,60.738 L65.968,60.217 L57.567,45.518 L75.147,45.493 L81.22,55.249 C82.5,57.319 85.216,57.948 87.277,56.669 C89.338,55.376 89.97,52.666 88.69,50.607 L85.497,45.477 L95.61,45.462 C98.037,45.462 100.001,43.484 100.001,41.057 C99.991,38.627 98.02,36.661 95.59,36.661 L95.59,36.661 Z" id="Shape" sketch:type="MSShapeGroup"></path>
        </g>
    </g>
</svg>